<svg xmlns="http://www.w3.org/2000/svg" width="512" height="512" viewBox="0 0 512 512">

    <g id="Layer_1-2" data-name="Layer 1">
      <g>
        <path d="M510,255q0,125.49-.16,251c0,1.37-2.45,3.92-3.75,3.93q-251.2.25-502.41,0c-1.24,0-3.56-2.37-3.56-3.63Q-.12,255,.14,3.81c0-1.29,2.6-3.68,4-3.68q251-.25,501.91,0c1.32,0,3.79,2.52,3.79,3.87Q510.12,129.49,510,255Zm-35.51-42.31C469.3,151,440.73,106.51,397.85,68.13c-82-73.35-183.65-75.83-273-7.38-97.61,74.79-88.22,174.3-57.56,270.78,2.57,8.09,9.72,18.79,6.87,23.86C59.55,381.45,67.09,402,85.43,421.7s38.81,31.83,67.64,25.64c5.07-1.09,13.17,8.46,18.77,14.17,7.6,7.74,13.43,22.89,21.24,23.74,34.43,3.77,69.4,5.62,104,3.92,17.64-.86,42.62,2.76,45.75-27.81.57-5.51,13-15.08,18.13-14,31.42,6.69,52.35-8.05,71.17-29.9,15.1-17.53,21.37-35.83,9.27-57.86-2.27-4.13-1.95-10.69-.71-15.6C451.67,300.15,463.15,256.42,474.49,212.66Z" fill="#57565b"/>
        <path d="M474.49,212.66c-11.34,43.76-22.82,87.49-33.83,131.34-1.24,4.91-1.56,11.47.71,15.6,12.1,22,5.83,40.33-9.27,57.86-18.82,21.85-39.75,36.59-71.17,29.9-5.1-1.08-17.56,8.49-18.13,14-3.13,30.57-28.11,26.95-45.75,27.81-34.57,1.7-69.54-.15-104-3.92-7.81-.85-13.64-16-21.24-23.74-5.6-5.71-13.7-15.26-18.77-14.17-28.83,6.19-49.27-5.9-67.64-25.64s-25.88-40.25-11.27-66.31c2.85-5.07-4.3-15.77-6.87-23.86-30.66-96.48-40.05-196,57.56-270.78,89.35-68.45,191-66,273,7.38C440.73,106.51,469.3,151,474.49,212.66Zm-24.21,6.17c-.23-87-93.33-184.74-183.65-183.41C115.27,37.65,25.71,168.82,90.26,324.82c4.84,11.69,10.75,27,6.95,37.26-5.86,15.77-11.66,30.13,3.72,40.32,14.28,9.47,32.28,20.28,47.88,19.23,25.08-1.7,46.67,10.93,47.23,37,0,1.46,1.38,4.11,2.21,4.16,31.21,1.55,62.42,3.52,93.65,3.79,8.66.07,24.54-4.24,24.92-7.82,2.84-26.89,23.19-39,49.53-36.91,15.22,1.23,33-10.48,47.14-20,14.76-9.93,12.15-24.76,2.73-38.8-2.24-3.34-2.61-9.2-1.53-13.28C426.29,306,438.35,262.45,450.28,218.83Z" fill="#e6ccbf"/>
        <path d="M450.28,218.83c-11.93,43.62-24,87.21-35.59,130.93-1.08,4.08-.71,9.94,1.53,13.28,9.42,14,12,28.87-2.73,38.8-14.16,9.54-31.92,21.25-47.14,20-26.34-2.12-46.69,10-49.53,36.91-.38,3.58-16.26,7.89-24.92,7.82-31.23-.27-62.44-2.24-93.65-3.79-.83-.05-2.18-2.7-2.21-4.16-.56-26.08-22.15-38.71-47.23-37-15.6,1.05-33.6-9.76-47.88-19.23-15.38-10.19-9.58-24.55-3.72-40.32,3.8-10.23-2.11-25.57-6.95-37.26-64.55-156,25-287.17,176.37-289.4C357,34.09,450.05,131.82,450.28,218.83Zm-265,36.94c-41.94.33-80.63,30.79-80.36,63.27.26,30.33,27.36,62,53,61.95,38.27-.15,84.44-39.08,84.26-71.06C241.92,279.12,217.15,255.52,185.23,255.77ZM329.44,257c-31.51-.1-56.38,23.19-56.44,52.88-.07,31.31,46.05,70.22,82.93,70,25.05-.17,51.94-31.76,52-61.16C408.08,287.42,369.49,257.1,329.44,257ZM269.61,435l5.73,4.9c6.48-8.06,19.73-17.77,18.24-23.89-6.2-25.41-16.27-50-26.66-74.11-1.13-2.64-18.29-3-19.78-.11a403.38,403.38,0,0,0-24.72,57.61c-9.26,27.72-1.3,37,27.91,35.65C256.74,434.78,263.18,435,269.61,435Z" fill="#57565b"/>
        <path d="M185.23,255.77c31.92-.25,56.69,23.35,56.86,54.16.18,32-46,70.91-84.26,71.06-25.6.09-52.7-31.62-53-61.95C104.6,286.56,143.29,256.1,185.23,255.77Zm11.6,23.3c-37.3,0-72.62,22.25-67.64,38.55,4.5,14.74,16.64,34.28,29.3,37.83,21.94,6.14,63.51-27.75,59.21-44.83C214.32,297.16,201.71,286,196.83,279.07Z" fill="#e6ccbf"/>
        <path d="M329.44,257c40.05.13,78.64,30.45,78.53,61.69-.1,29.4-27,61-52,61.16-36.88.25-83-38.66-82.93-70C273.06,280.16,297.93,256.87,329.44,257Zm59.9,67.87c-4.7-23.69-33.15-46.42-60-43.21-11.71,1.4-27.41,15.5-31.11,27.08-5.6,17.53,32.28,50,56.24,45.86C367.42,352.34,377.8,335.24,389.34,324.84Z" fill="#e6ccbf"/>
        <path d="M269.61,435c-6.43,0-12.87-.25-19.28.05-29.21,1.32-37.17-7.93-27.91-35.65a403.38,403.38,0,0,1,24.72-57.61c1.49-2.87,18.65-2.53,19.78.11,10.39,24.13,20.46,48.7,26.66,74.11,1.49,6.12-11.76,15.83-18.24,23.89Zm-.3-24.23c-2.69.83-1.1.37-1.11.34q-5.32-20.07-10.94-40.08c-.09-.31-1.2-.39-1.85-.45-.15,0-.44.49-.52.79q-5.56,19.69-11.09,39.4Z" fill="#e6ccbf"/>
        <path d="M196.83,279.07c4.88,7,17.49,18.09,20.87,31.55,4.3,17.08-37.27,51-59.21,44.83-12.66-3.55-24.8-23.09-29.3-37.83C124.21,301.32,159.53,279,196.83,279.07Z" fill="#57565b"/>
        <path d="M389.34,324.84c-11.54,10.4-21.92,27.5-34.86,29.73-24,4.13-61.84-28.33-56.24-45.86,3.7-11.58,19.4-25.68,31.11-27.08C356.19,278.42,384.64,301.15,389.34,324.84Z" fill="#57565b"/>
        <path d="M269.31,410.8H243.8q5.53-19.71,11.09-39.4c.08-.3.37-.8.52-.79.65.06,1.76.14,1.85.45q5.61,20,10.94,40.08S266.62,411.63,269.31,410.8Z" fill="#57565b"/>
      </g>
    </g>

</svg>
